<?xml version="1.0" encoding="UTF-8" standalone="no"?><!DOCTYPE svg PUBLIC "-//W3C//DTD SVG 1.1//EN" "http://www.w3.org/Graphics/SVG/1.1/DTD/svg11.dtd"><svg width="100%" height="100%" viewBox="0 0 64 64" version="1.1" xmlns="http://www.w3.org/2000/svg" xmlns:xlink="http://www.w3.org/1999/xlink" xml:space="preserve" xmlns:serif="http://www.serif.com/" style="fill-rule:evenodd;clip-rule:evenodd;stroke-linecap:round;stroke-linejoin:round;stroke-miterlimit:2;"><rect id="Artboard1" x="0" y="0" width="64" height="64" style="fill:none;"/><g id="Artboard11" serif:id="Artboard1"><path d="M60,18c0,-7.727 -6.273,-14 -14,-14l-28,-0c-7.727,-0 -14,6.273 -14,14l0,28c0,7.727 6.273,14 14,14l28,0c7.727,0 14,-6.273 14,-14l0,-28Z" style="fill:#058c6f;"/><g><path d="M20.594,35.738l-0.026,0l-0,13.544c-0,0.721 -0.322,1.412 -0.896,1.922c-0.573,0.51 -1.351,0.796 -2.161,0.796l-0.112,-0c-1.601,-0 -2.899,-1.154 -2.899,-2.577l-0,-34.348c0,-0.816 0.364,-1.598 1.013,-2.174c0.649,-0.577 1.529,-0.901 2.446,-0.901l2.635,0l0,4.72l-0.026,0l-0,14.298l0.026,-0l0,4.72Z" style="fill:#fff;fill-rule:nonzero;stroke:#fff;stroke-width:4px;"/><path d="M26.666,12l5.131,0c3.044,0 5.369,0.147 6.975,0.442c2.252,0.379 4.139,1.1 5.661,2.163c1.522,1.063 2.747,2.552 3.675,4.468c0.928,1.915 1.392,4.021 1.392,6.315c0,3.936 -1.241,7.268 -3.722,9.994c-2.481,2.726 -6.965,4.089 -13.45,4.089l-5.662,-0l-0,-5.463l5.756,0c3.92,0 6.704,-0.737 8.351,-2.21c1.648,-1.474 2.471,-3.547 2.471,-6.221c0,-1.936 -0.484,-3.594 -1.454,-4.973c-0.97,-1.378 -2.247,-2.289 -3.832,-2.731c-1.021,-0.274 -2.908,-0.41 -5.661,-0.41l-5.631,-0l-0,-5.463Z" style="fill:#ffbf00;fill-rule:nonzero;stroke:#ffbf00;stroke-width:4px;"/></g></g></svg>